<svg width="1366" height="199" viewBox="0 0 1366 199" fill="none" xmlns="http://www.w3.org/2000/svg">
<path d="M-275.4 420.83C-275.4 420.83 1644 710.083 1845.71 189.672" stroke="#FF5000" stroke-width="5.05" stroke-miterlimit="10"/>
<path d="M-275.4 420.068C-275.4 420.068 1644.46 706.816 1844.39 186.285" stroke="#FF5000" stroke-width="5.05" stroke-miterlimit="10"/>
<path d="M-275.4 419.302C-275.4 419.302 1644.91 703.54 1843.06 182.863" stroke="#FF5000" stroke-width="5.05" stroke-miterlimit="10"/>
<path d="M-275.4 418.539C-275.4 418.539 1645.36 700.273 1841.76 179.508" stroke="#FF5000" stroke-width="5.05" stroke-miterlimit="10"/>
<path d="M-275.4 417.771C-275.4 417.771 1645.81 696.969 1840.45 176.109" stroke="#FF5000" stroke-width="5.05" stroke-miterlimit="10"/>
<path d="M-275.4 417.007C-275.4 417.007 1646.27 693.726 1839.13 172.746" stroke="#FF5000" stroke-width="5.05" stroke-miterlimit="10"/>
<path d="M-275.4 416.241C-275.4 416.241 1646.72 690.456 1837.82 169.324" stroke="#FF5000" stroke-width="5.05" stroke-miterlimit="10"/>
<path d="M-275.4 415.477C-275.4 415.477 1647.17 687.181 1836.5 165.93" stroke="#FF5000" stroke-width="5.05" stroke-miterlimit="10"/>
<path d="M-275.4 414.704C-275.4 414.704 1647.6 683.911 1835.19 162.539" stroke="#FF5000" stroke-width="5.05" stroke-miterlimit="10"/>
<path d="M-275.4 413.938C-275.4 413.938 1648.06 680.634 1833.87 159.148" stroke="#FF5000" stroke-width="5.05" stroke-miterlimit="10"/>
<path d="M-275.4 413.178C-275.4 413.178 1648.53 677.37 1832.56 155.758" stroke="#FF5000" stroke-width="5.05" stroke-miterlimit="10"/>
<path d="M-275.4 412.407C-275.4 412.407 1648.98 674.089 1831.24 152.363" stroke="#FF5000" stroke-width="5.05" stroke-miterlimit="10"/>
<path d="M-275.4 411.645C-275.4 411.645 1649.43 670.823 1829.92 148.977" stroke="#FF5000" stroke-width="5.05" stroke-miterlimit="10"/>
<path d="M-275.4 410.881C-275.4 410.881 1649.89 667.548 1828.6 145.582" stroke="#FF5000" stroke-width="5.05" stroke-miterlimit="10"/>
<path d="M-275.4 410.111C-275.4 410.111 1650.34 664.274 1827.29 142.188" stroke="#FF5000" stroke-width="5.05" stroke-miterlimit="10"/>
<path d="M-275.4 409.347C-275.4 409.347 1650.79 661.025 1825.98 138.793" stroke="#FF5000" stroke-width="5.05" stroke-miterlimit="10"/>
<path d="M-275.4 408.616C-275.4 408.616 1651.24 657.764 1824.66 135.438" stroke="#FF5000" stroke-width="5.05" stroke-miterlimit="10"/>
<path d="M-275.4 407.818C-275.4 407.818 1651.7 654.437 1823.35 132.016" stroke="#FF5000" stroke-width="5.05" stroke-miterlimit="10"/>
<path d="M-275.4 407.054C-275.4 407.054 1652.15 651.188 1822.06 128.621" stroke="#FF5000" stroke-width="5.05" stroke-miterlimit="10"/>
<path d="M-275.4 406.292C-275.4 406.292 1652.6 647.922 1820.72 125.234" stroke="#FF5000" stroke-width="5.05" stroke-miterlimit="10"/>
<path d="M-275.4 405.521C-275.4 405.521 1653.06 644.641 1819.4 121.84" stroke="#FF5000" stroke-width="5.05" stroke-miterlimit="10"/>
<path d="M-275.4 404.751C-275.4 404.751 1653.51 641.373 1818.06 118.445" stroke="#FF5000" stroke-width="5.05" stroke-miterlimit="10"/>
<path d="M-275.4 403.985C-275.4 403.985 1653.96 638.096 1816.77 115.055" stroke="#FF5000" stroke-width="5.05" stroke-miterlimit="10"/>
<path d="M-275.4 403.221C-275.4 403.221 1654.41 634.828 1815.46 111.66" stroke="#FF5000" stroke-width="5.05" stroke-miterlimit="10"/>
<path d="M-275.4 402.456C-275.4 402.456 1654.86 631.559 1814.14 108.246" stroke="#FF5000" stroke-width="5.05" stroke-miterlimit="10"/>
<path d="M-275.4 401.692C-275.4 401.692 1655.32 628.285 1812.83 104.883" stroke="#FF5000" stroke-width="5.05" stroke-miterlimit="10"/>
<path d="M-275.4 400.928C-275.4 400.928 1655.77 625.017 1811.51 101.488" stroke="#FF5000" stroke-width="5.05" stroke-miterlimit="10"/>
<path d="M-275.4 400.158C-275.4 400.158 1656.22 621.716 1810.2 98.125" stroke="#FF5000" stroke-width="5.05" stroke-miterlimit="10"/>
<path d="M-275.4 399.392C-275.4 399.392 1656.67 618.465 1808.88 94.7031" stroke="#FF5000" stroke-width="5.05" stroke-miterlimit="10"/>
<path d="M-275.4 398.63C-275.4 398.63 1657.13 615.193 1807.6 91.3047" stroke="#FF5000" stroke-width="5.05" stroke-miterlimit="10"/>
<path d="M-275.4 397.865C-275.4 397.865 1657.6 611.924 1806.25 87.9219" stroke="#FF5000" stroke-width="5.05" stroke-miterlimit="10"/>
<path d="M-275.4 397.101C-275.4 397.101 1658.06 608.65 1804.94 84.5273" stroke="#FF5000" stroke-width="5.05" stroke-miterlimit="10"/>
<path d="M-275.4 396.335C-275.4 396.335 1658.48 605.38 1803.6 81.1367" stroke="#FF5000" stroke-width="5.05" stroke-miterlimit="10"/>
<path d="M-275.4 395.569C-275.4 395.569 1658.94 602.115 1802.31 77.7461" stroke="#FF5000" stroke-width="5.05" stroke-miterlimit="10"/>
<path d="M-275.4 394.802C-275.4 394.802 1659.39 598.839 1800.99 74.3555" stroke="#FF5000" stroke-width="5.05" stroke-miterlimit="10"/>
<path d="M-275.4 394.03C-275.4 394.03 1659.84 595.562 1799.68 70.9336" stroke="#FF5000" stroke-width="5.05" stroke-miterlimit="10"/>
<path d="M-275.4 393.266C-275.4 393.266 1660.29 592.287 1798.36 67.5703" stroke="#FF5000" stroke-width="5.05" stroke-miterlimit="10"/>
<path d="M-275.4 392.502C-275.4 392.502 1660.75 589.019 1797.06 64.1758" stroke="#FF5000" stroke-width="5.05" stroke-miterlimit="10"/>
<path d="M-275.4 391.739C-275.4 391.739 1661.2 585.746 1795.73 60.8203" stroke="#FF5000" stroke-width="5.05" stroke-miterlimit="10"/>
<path d="M-275.4 390.971C-275.4 390.971 1661.65 582.474 1794.42 57.3906" stroke="#FF5000" stroke-width="5.05" stroke-miterlimit="10"/>
<path d="M-275.4 390.209C-275.4 390.209 1662.06 579.202 1793.06 54.0039" stroke="#FF5000" stroke-width="5.05" stroke-miterlimit="10"/>
<path d="M-275.4 389.443C-275.4 389.443 1662.6 575.931 1791.79 50.6133" stroke="#FF5000" stroke-width="5.05" stroke-miterlimit="10"/>
<path d="M-275.4 388.68C-275.4 388.68 1663.01 572.696 1790.47 47.207" stroke="#FF5000" stroke-width="5.05" stroke-miterlimit="10"/>
<path d="M-275.4 387.912C-275.4 387.912 1663.46 569.399 1789.15 43.8281" stroke="#FF5000" stroke-width="5.05" stroke-miterlimit="10"/>
<path d="M-275.4 387.146C-275.4 387.146 1663.91 566.103 1787.84 40.4375" stroke="#FF5000" stroke-width="5.05" stroke-miterlimit="10"/>
<path d="M-275.4 386.382C-275.4 386.382 1664.37 562.841 1786.52 37.043" stroke="#FF5000" stroke-width="5.05" stroke-miterlimit="10"/>
<path d="M-275.4 385.611C-275.4 385.611 1664.82 559.573 1785.21 33.6289" stroke="#FF5000" stroke-width="5.05" stroke-miterlimit="10"/>
<path d="M-275.4 384.846C-275.4 384.846 1665.27 556.296 1783.89 30.2578" stroke="#FF5000" stroke-width="5.05" stroke-miterlimit="10"/>
<path d="M-275.4 384.083C-275.4 384.083 1665.72 553.03 1782.6 26.8711" stroke="#FF5000" stroke-width="5.05" stroke-miterlimit="10"/>
<path d="M-275.4 383.319C-275.4 383.319 1666.18 549.755 1781.26 23.5078" stroke="#FF5000" stroke-width="5.05" stroke-miterlimit="10"/>
<path d="M-275.4 382.549C-275.4 382.549 1666.6 546.481 1779.95 20.082" stroke="#FF5000" stroke-width="5.05" stroke-miterlimit="10"/>
<path d="M-275.4 381.787C-275.4 381.787 1667.08 543.215 1778.6 16.6953" stroke="#FF5000" stroke-width="5.05" stroke-miterlimit="10"/>
<path d="M-275.4 381.02C-275.4 381.02 1667.53 539.938 1777.32 13.3047" stroke="#FF5000" stroke-width="5.05" stroke-miterlimit="10"/>
<path d="M-275.4 380.256C-275.4 380.256 1667.99 536.67 1776 9.91016" stroke="#FF5000" stroke-width="5.05" stroke-miterlimit="10"/>
<path d="M-275.4 379.49C-275.4 379.49 1668.44 533.393 1774.69 6.51953" stroke="#FF5000" stroke-width="5.05" stroke-miterlimit="10"/>
<path d="M-275.4 378.722C-275.4 378.722 1668.89 530.12 1773.37 3.10156" stroke="#FF5000" stroke-width="5.05" stroke-miterlimit="10"/>
<path d="M-275.4 377.96C-275.4 377.96 1669.34 526.867 1772.06 -0.265625" stroke="#FF5000" stroke-width="5.05" stroke-miterlimit="10"/>
<path d="M-275.4 377.191C-275.4 377.191 1669.8 523.576 1770.74 -3.68359" stroke="#FF5000" stroke-width="5.05" stroke-miterlimit="10"/>
<path d="M-275.4 376.429C-275.4 376.429 1670.25 520.303 1769.43 -7.05078" stroke="#FF5000" stroke-width="5.05" stroke-miterlimit="10"/>
<path d="M-275.4 375.657C-275.4 375.657 1670.7 517.033 1768.11 -10.4414" stroke="#FF5000" stroke-width="5.05" stroke-miterlimit="10"/>
<path d="M-275.4 374.894C-275.4 374.894 1671.15 513.766 1766.8 -13.7969" stroke="#FF5000" stroke-width="5.05" stroke-miterlimit="10"/>
<path d="M-275.4 374.126C-275.4 374.126 1671.6 510.488 1765.48 -17.2266" stroke="#FF5000" stroke-width="5.05" stroke-miterlimit="10"/>
<path d="M-275.4 373.361C-275.4 373.361 1672.06 507.218 1764.17 -20.5977" stroke="#FF5000" stroke-width="5.05" stroke-miterlimit="10"/>
<path d="M-275.4 372.57C-275.4 372.57 1672.51 503.917 1762.85 -24.0312" stroke="#FF5000" stroke-width="5.05" stroke-miterlimit="10"/>
<path d="M-275.4 371.83C-275.4 371.83 1672.96 500.673 1761.54 -27.4023" stroke="#FF5000" stroke-width="5.05" stroke-miterlimit="10"/>
<path d="M-275.4 371.067C-275.4 371.067 1673.42 497.4 1760.22 -30.7891" stroke="#FF5000" stroke-width="5.05" stroke-miterlimit="10"/>
<path d="M-275.4 370.3C-275.4 370.3 1673.87 494.128 1758.91 -34.1875" stroke="#FF5000" stroke-width="5.05" stroke-miterlimit="10"/>
<path d="M-275.4 369.537C-275.4 369.537 1674.32 490.855 1757.6 -37.5742" stroke="#FF5000" stroke-width="5.05" stroke-miterlimit="10"/>
<path d="M-275.4 368.779C-275.4 368.779 1674.77 487.586 1756.28 -40.9883" stroke="#FF5000" stroke-width="5.05" stroke-miterlimit="10"/>
<path d="M-275.4 368.007C-275.4 368.007 1675.23 484.316 1754.96 -44.3594" stroke="#FF5000" stroke-width="5.05" stroke-miterlimit="10"/>
<path d="M-275.4 367.24C-275.4 367.24 1675.68 481.065 1753.65 -47.75" stroke="#FF5000" stroke-width="5.05" stroke-miterlimit="10"/>
<path d="M-275.4 366.474C-275.4 366.474 1676.13 477.769 1752.33 -51.1406" stroke="#FF5000" stroke-width="5.05" stroke-miterlimit="10"/>
<path d="M-275.4 365.704C-275.4 365.704 1676.6 474.469 1751.02 -54.5352" stroke="#FF5000" stroke-width="5.05" stroke-miterlimit="10"/>
<path d="M-275.4 364.942C-275.4 364.942 1677.06 471.222 1749.7 -57.9219" stroke="#FF5000" stroke-width="5.05" stroke-miterlimit="10"/>
<path d="M-275.4 364.174C-275.4 364.174 1677.49 467.95 1748.38 -61.3203" stroke="#FF5000" stroke-width="5.05" stroke-miterlimit="10"/>
<path d="M-275.4 363.406C-275.4 363.406 1677.94 464.678 1747.07 -64.6992" stroke="#FF5000" stroke-width="5.05" stroke-miterlimit="10"/>
<path d="M-275.4 362.645C-275.4 362.645 1678.39 461.406 1745.75 -68.0977" stroke="#FF5000" stroke-width="5.05" stroke-miterlimit="10"/>
<path d="M-275.4 361.881C-275.4 361.881 1678.85 458.138 1744.44 -71.4922" stroke="#FF5000" stroke-width="5.05" stroke-miterlimit="10"/>
<path d="M-275.4 361.111C-275.4 361.111 1679.3 454.864 1743.12 -74.8867" stroke="#FF5000" stroke-width="5.05" stroke-miterlimit="10"/>
<path d="M-275.4 360.346C-275.4 360.346 1679.75 451.614 1741.81 -78.3008" stroke="#FF5000" stroke-width="5.05" stroke-miterlimit="10"/>
<path d="M-275.4 359.584C-275.4 359.584 1680.2 448.323 1740.49 -81.668" stroke="#FF5000" stroke-width="5.05" stroke-miterlimit="10"/>
<path d="M-275.4 358.818C-275.4 358.818 1680.66 445.046 1739.18 -85.0586" stroke="#FF5000" stroke-width="5.05" stroke-miterlimit="10"/>
<path d="M-275.4 358.027C-275.4 358.027 1681.11 441.751 1737.86 -88.4805" stroke="#FF5000" stroke-width="5.05" stroke-miterlimit="10"/>
<path d="M-275.4 357.288C-275.4 357.288 1681.6 438.501 1736.6 -91.8438" stroke="#FF5000" stroke-width="5.05" stroke-miterlimit="10"/>
<path d="M-275.4 356.521C-275.4 356.521 1682.06 435.231 1735.23 -95.2344" stroke="#FF5000" stroke-width="5.05" stroke-miterlimit="10"/>
<path d="M-275.4 355.751C-275.4 355.751 1682.47 431.963 1733.92 -98.6289" stroke="#FF5000" stroke-width="5.05" stroke-miterlimit="10"/>
<path d="M-275.4 354.985C-275.4 354.985 1682.92 428.686 1732.6 -102.02" stroke="#FF5000" stroke-width="5.05" stroke-miterlimit="10"/>
<path d="M-275.4 354.234C-275.4 354.234 1683.37 425.431 1731.29 -105.395" stroke="#FF5000" stroke-width="5.05" stroke-miterlimit="10"/>
<path d="M-275.4 353.456C-275.4 353.456 1683.82 422.143 1729.97 -108.797" stroke="#FF5000" stroke-width="5.05" stroke-miterlimit="10"/>
<path d="M-275.4 352.692C-275.4 352.692 1684.28 418.875 1728.66 -112.191" stroke="#FF5000" stroke-width="5.05" stroke-miterlimit="10"/>
<path d="M-275.4 351.924C-275.4 351.924 1684.73 415.57 1727.34 -115.609" stroke="#FF5000" stroke-width="5.05" stroke-miterlimit="10"/>
<path d="M-275.4 351.162C-275.4 351.162 1685.18 412.33 1726.06 -118.977" stroke="#FF5000" stroke-width="5.05" stroke-miterlimit="10"/>
<path d="M-275.4 350.396C-275.4 350.396 1685.6 409.053 1724.71 -122.367" stroke="#FF5000" stroke-width="5.05" stroke-miterlimit="10"/>
<path d="M-275.4 349.628C-275.4 349.628 1686.09 405.781 1723.4 -125.766" stroke="#FF5000" stroke-width="5.05" stroke-miterlimit="10"/>
<path d="M-275.4 348.865C-275.4 348.865 1686.54 402.514 1722.06 -129.152" stroke="#FF5000" stroke-width="5.05" stroke-miterlimit="10"/>
<path d="M-275.4 348.099C-275.4 348.099 1686.99 399.238 1720.77 -132.543" stroke="#FF5000" stroke-width="5.05" stroke-miterlimit="10"/>
<path d="M-275.4 347.335C-275.4 347.335 1687.44 395.969 1719.45 -135.938" stroke="#FF5000" stroke-width="5.05" stroke-miterlimit="10"/>
<path d="M-275.4 346.566C-275.4 346.566 1687.9 392.728 1718.14 -139.324" stroke="#FF5000" stroke-width="5.05" stroke-miterlimit="10"/>
<path d="M-275.4 345.796C-275.4 345.796 1688.35 389.429 1716.82 -142.719" stroke="#FF5000" stroke-width="5.05" stroke-miterlimit="10"/>
<path d="M-275.4 345.032C-275.4 345.032 1688.8 386.135 1715.51 -146.113" stroke="#FF5000" stroke-width="5.05" stroke-miterlimit="10"/>
<path d="M-275.4 344.266C-275.4 344.266 1689.25 382.877 1714.19 -149.504" stroke="#FF5000" stroke-width="5.05" stroke-miterlimit="10"/>
<path d="M-275.4 343.482C-275.4 343.482 1689.71 379.583 1712.88 -152.918" stroke="#FF5000" stroke-width="5.05" stroke-miterlimit="10"/>
<path d="M-275.4 342.735C-275.4 342.735 1690.16 376.364 1711.56 -156.289" stroke="#FF5000" stroke-width="5.05" stroke-miterlimit="10"/>
<path d="M-275.4 341.973C-275.4 341.973 1690.6 373.066 1710.24 -159.676" stroke="#FF5000" stroke-width="5.05" stroke-miterlimit="10"/>
<path d="M-275.4 341.209C-275.4 341.209 1691.06 369.791 1708.93 -163.07" stroke="#FF5000" stroke-width="5.05" stroke-miterlimit="10"/>
<path d="M-275.4 340.443C-275.4 340.443 1691.52 366.521 1707.6 -166.461" stroke="#FF5000" stroke-width="5.05" stroke-miterlimit="10"/>
<path d="M-275.4 339.692C-275.4 339.692 1691.97 363.26 1706.3 -169.836" stroke="#FF5000" stroke-width="5.05" stroke-miterlimit="10"/>
<path d="M-275.4 338.909C-275.4 338.909 1692.42 359.972 1704.98 -173.25" stroke="#FF5000" stroke-width="5.05" stroke-miterlimit="10"/>
<path d="M-275.4 338.146C-275.4 338.146 1692.87 356.699 1703.67 -176.637" stroke="#FF5000" stroke-width="5.05" stroke-miterlimit="10"/>
<path d="M-275.4 337.382C-275.4 337.382 1693.33 353.431 1702.35 -180.031" stroke="#FF5000" stroke-width="5.05" stroke-miterlimit="10"/>
<path d="M-275.4 336.609C-275.4 336.609 1693.78 350.155 1701.06 -183.422" stroke="#FF5000" stroke-width="5.05" stroke-miterlimit="10"/>
<path d="M-275.4 335.847C-275.4 335.847 1694.23 346.888 1699.72 -186.809" stroke="#FF5000" stroke-width="5.05" stroke-miterlimit="10"/>
<path d="M-275.4 335.079C-275.4 335.079 1694.68 343.615 1698.41 -190.227" stroke="#FF5000" stroke-width="5.05" stroke-miterlimit="10"/>
<path d="M-275.4 334.313C-275.4 334.313 1695.14 340.32 1697.06 -193.598" stroke="#FF5000" stroke-width="5.05" stroke-miterlimit="10"/>
<path d="M-275.4 333.551C-275.4 333.551 1695.6 337.074 1695.78 -196.996" stroke="#FF5000" stroke-width="5.05" stroke-miterlimit="10"/>
<path d="M-275.4 332.783C-275.4 332.783 1696.06 333.794 1694.46 -200.383" stroke="#FF5000" stroke-width="5.05" stroke-miterlimit="10"/>
<path d="M-275.4 332.02C-275.4 332.02 1696.49 330.528 1693.15 -203.77" stroke="#FF5000" stroke-width="5.05" stroke-miterlimit="10"/>
<path d="M-275.4 331.252C-275.4 331.252 1696.95 327.249 1691.83 -207.168" stroke="#FF5000" stroke-width="5.05" stroke-miterlimit="10"/>
<path d="M-275.4 330.49C-275.4 330.49 1697.4 323.983 1690.52 -210.555" stroke="#FF5000" stroke-width="5.05" stroke-miterlimit="10"/>
<path d="M-275.4 329.723C-275.4 329.723 1697.85 320.719 1689.2 -213.945" stroke="#FF5000" stroke-width="5.05" stroke-miterlimit="10"/>
<path d="M-275.4 328.936C-275.4 328.936 1698.31 317.415 1687.89 -217.363" stroke="#FF5000" stroke-width="5.05" stroke-miterlimit="10"/>
<path d="M-275.4 328.193C-275.4 328.193 1698.76 314.168 1686.6 -220.73" stroke="#FF5000" stroke-width="5.05" stroke-miterlimit="10"/>
<path d="M-275.4 327.427C-275.4 327.427 1699.21 310.891 1685.26 -224.121" stroke="#FF5000" stroke-width="5.05" stroke-miterlimit="10"/>
<path d="M-275.4 326.656C-275.4 326.656 1699.66 307.622 1683.94 -227.535" stroke="#FF5000" stroke-width="5.05" stroke-miterlimit="10"/>
<path d="M-275.4 325.89C-275.4 325.89 1700.12 304.346 1682.6 -230.906" stroke="#FF5000" stroke-width="5.05" stroke-miterlimit="10"/>
<path d="M-275.4 325.146C-275.4 325.146 1700.6 301.116 1681.31 -234.281" stroke="#FF5000" stroke-width="5.05" stroke-miterlimit="10"/>
<path d="M-275.4 324.364C-275.4 324.364 1701.02 297.805 1680 -237.688" stroke="#FF5000" stroke-width="5.05" stroke-miterlimit="10"/>
<path d="M-275.4 323.593C-275.4 323.593 1701.47 294.505 1678.68 -241.102" stroke="#FF5000" stroke-width="5.05" stroke-miterlimit="10"/>
<path d="M-275.4 322.83C-275.4 322.83 1701.93 291.256 1677.37 -244.477" stroke="#FF5000" stroke-width="5.05" stroke-miterlimit="10"/>
<path d="M-275.4 322.063C-275.4 322.063 1702.38 287.986 1676.06 -247.867" stroke="#FF5000" stroke-width="5.05" stroke-miterlimit="10"/>
<path d="M-275.4 321.301C-275.4 321.301 1702.83 284.719 1674.74 -251.254" stroke="#FF5000" stroke-width="5.05" stroke-miterlimit="10"/>
<path d="M-275.4 320.533C-275.4 320.533 1703.28 281.441 1673.42 -254.652" stroke="#FF5000" stroke-width="5.05" stroke-miterlimit="10"/>
<path d="M-275.4 319.771C-275.4 319.771 1703.74 278.174 1672.11 -258.039" stroke="#FF5000" stroke-width="5.05" stroke-miterlimit="10"/>
<path d="M-275.4 319.007C-275.4 319.007 1704.19 274.9 1670.79 -261.434" stroke="#FF5000" stroke-width="5.05" stroke-miterlimit="10"/>
<path d="M-275.4 318.24C-275.4 318.24 1704.6 271.629 1669.47 -264.793" stroke="#FF5000" stroke-width="5.05" stroke-miterlimit="10"/>
<path d="M-275.4 317.468C-275.4 317.468 1705.06 268.353 1668.16 -268.215" stroke="#FF5000" stroke-width="5.05" stroke-miterlimit="10"/>
<path d="M-275.4 316.7C-275.4 316.7 1705.55 265.068 1666.84 -271.613" stroke="#FF5000" stroke-width="5.05" stroke-miterlimit="10"/>
<path d="M-275.4 315.937C-275.4 315.937 1706 261.808 1665.53 -275" stroke="#FF5000" stroke-width="5.05" stroke-miterlimit="10"/>
<path d="M-275.82 315.419C-275.82 315.419 197.36 301.267 676.85 226.257C1177.76 147.845 1685.73 1.1949 1666.23 -272.078" stroke="#FF5000" stroke-width="5.05" stroke-miterlimit="10"/>
<path d="M-276.25 314.895C-276.25 314.895 196.3 299.535 675.8 225.499C1176.56 148.086 1685.25 3.06111 1666.93 -269.188" stroke="#FF5100" stroke-width="5.05" stroke-miterlimit="10"/>
<path d="M-276.68 314.394C-276.68 314.394 195.25 297.826 674.74 224.763C1175.37 148.349 1684.74 4.95612 1667.62 -266.262" stroke="#FF5100" stroke-width="5.05" stroke-miterlimit="10"/>
<path d="M-277.11 313.851C-277.11 313.851 194.19 296.056 673.69 223.968C1174.18 148.559 1684.29 6.7911 1668.32 -263.402" stroke="#FF5200" stroke-width="5.05" stroke-miterlimit="10"/>
<path d="M-277.54 313.332C-277.54 313.332 193.14 294.361 672.64 223.246C1172.99 148.837 1683.82 8.69395 1669.06 -260.469" stroke="#FF5200" stroke-width="5.05" stroke-miterlimit="10"/>
<path d="M-277.939 312.804C-277.939 312.804 192.061 292.613 671.591 222.491C1171.79 149.081 1683.34 10.5695 1669.72 -257.562" stroke="#FF5200" stroke-width="5.05" stroke-miterlimit="10"/>
<path d="M-278.39 312.29C-278.39 312.29 191.06 290.891 670.54 221.742C1170.6 149.338 1682.86 12.4323 1670.42 -254.656" stroke="#FF5300" stroke-width="5.05" stroke-miterlimit="10"/>
<path d="M-278.82 311.762C-278.82 311.762 189.98 289.155 669.49 220.994C1169.41 149.588 1682.38 14.3268 1671.12 -251.75" stroke="#FF5300" stroke-width="5.05" stroke-miterlimit="10"/>
<path d="M-279.25 311.233C-279.25 311.233 188.93 287.419 668.43 220.231C1168.22 149.831 1681.9 16.1945 1671.81 -248.852" stroke="#FF5400" stroke-width="5.05" stroke-miterlimit="10"/>
<path d="M-279.68 310.723C-279.68 310.723 187.87 285.701 667.38 219.493C1167.02 150.098 1681.38 18.0871 1672.51 -245.922" stroke="#FF5400" stroke-width="5.05" stroke-miterlimit="10"/>
<path d="M-280.1 310.203C-280.1 310.203 186.82 283.973 666.33 218.745C1165.83 150.343 1680.94 19.9636 1673.21 -243.027" stroke="#FF5400" stroke-width="5.05" stroke-miterlimit="10"/>
<path d="M-280.53 309.674C-280.53 309.674 185.77 282.236 665.28 217.982C1164.64 150.611 1680.46 21.8376 1673.91 -240.129" stroke="#FF5500" stroke-width="5.05" stroke-miterlimit="10"/>
<path d="M-280.939 309.157C-280.939 309.157 184.731 280.511 664.251 217.237C1163.46 150.84 1680.01 23.736 1674.63 -237.219" stroke="#FF5500" stroke-width="5.05" stroke-miterlimit="10"/>
<path d="M-281.39 308.633C-281.39 308.633 183.66 278.779 663.17 216.492C1162.25 151.1 1679.51 25.5964 1675.31 -234.309" stroke="#FF5600" stroke-width="5.05" stroke-miterlimit="10"/>
<path d="M-281.811 308.114C-281.811 308.114 182.609 277.085 662.119 215.746C1161.06 151.347 1679.06 27.4743 1676.06 -231.406" stroke="#FF5600" stroke-width="5.05" stroke-miterlimit="10"/>
<path d="M-282.24 307.591C-282.24 307.591 181.55 275.322 661.06 214.988C1159.86 151.601 1678.54 29.3538 1676.69 -228.496" stroke="#FF5600" stroke-width="5.05" stroke-miterlimit="10"/>
<path d="M-282.67 307.068C-282.67 307.068 180.5 273.591 660.06 214.238C1158.67 151.875 1678.06 31.2278 1677.4 -225.598" stroke="#FF5700" stroke-width="5.05" stroke-miterlimit="10"/>
<path d="M-283.1 306.549C-283.1 306.549 179.44 271.864 658.97 213.491C1157.48 152.108 1677.59 33.1111 1678.06 -222.684" stroke="#FF5700" stroke-width="5.06" stroke-miterlimit="10"/>
<path d="M-283.53 306.031C-283.53 306.031 178.39 270.132 657.92 212.739C1156.29 152.355 1677.11 34.9899 1678.8 -219.793" stroke="#FF5800" stroke-width="5.06" stroke-miterlimit="10"/>
<path d="M-283.939 305.502C-283.939 305.502 177.341 268.402 656.861 211.989C1155.06 152.605 1676.64 36.8645 1679.5 -216.875" stroke="#FF5800" stroke-width="5.06" stroke-miterlimit="10"/>
<path d="M-284.38 304.985C-284.38 304.985 176.28 266.677 655.81 211.238C1153.9 152.859 1676.16 38.7439 1680.2 -213.965" stroke="#FF5800" stroke-width="5.06" stroke-miterlimit="10"/>
<path d="M-284.811 304.462C-284.811 304.462 175.189 264.946 654.759 210.487C1152.76 153.113 1675.68 40.6234 1680.89 -211.055" stroke="#FF5900" stroke-width="5.06" stroke-miterlimit="10"/>
<path d="M-285.24 303.943C-285.24 303.943 174.18 263.219 653.76 209.722C1151.52 153.36 1675.2 42.4823 1681.59 -208.152" stroke="#FF5900" stroke-width="5.06" stroke-miterlimit="10"/>
<path d="M-285.66 303.415C-285.66 303.415 173.12 261.484 652.66 208.986C1150.32 153.61 1674.72 44.3768 1682.29 -205.246" stroke="#FF5A00" stroke-width="5.06" stroke-miterlimit="10"/>
<path d="M-286.09 302.897C-286.09 302.897 172.06 259.757 651.6 208.233C1149.13 153.85 1674.24 46.2547 1682.99 -202.344" stroke="#FF5A00" stroke-width="5.06" stroke-miterlimit="10"/>
<path d="M-286.52 302.381C-286.52 302.381 171.02 258.033 650.55 207.527C1147.94 154.156 1673.76 48.1732 1683.69 -199.395" stroke="#FF5A00" stroke-width="5.06" stroke-miterlimit="10"/>
<path d="M-286.939 301.854C-286.939 301.854 169.971 256.324 649.511 206.735C1146.74 154.369 1673.28 50.0115 1684.39 -196.551" stroke="#FF5B00" stroke-width="5.06" stroke-miterlimit="10"/>
<path d="M-287.38 301.331C-287.38 301.331 168.91 254.537 648.45 205.984C1145.55 154.618 1672.81 51.8851 1685.06 -193.621" stroke="#FF5B00" stroke-width="5.06" stroke-miterlimit="10"/>
<path d="M-287.8 300.81C-287.8 300.81 167.85 252.833 647.4 205.235C1144.4 154.868 1672.33 53.7606 1685.78 -190.715" stroke="#FF5C00" stroke-width="5.06" stroke-miterlimit="10"/>
<path d="M-288.23 300.286C-288.23 300.286 166.77 251.108 646.349 204.484C1143.17 155.122 1671.85 55.64 1686.48 -187.805" stroke="#FF5C00" stroke-width="5.06" stroke-miterlimit="10"/>
<path d="M-288.66 299.768C-288.66 299.768 165.75 249.375 645.34 203.732C1142.02 155.375 1671.42 57.518 1687.23 -184.902" stroke="#FF5C00" stroke-width="5.06" stroke-miterlimit="10"/>
<path d="M-289.09 299.217C-289.09 299.217 164.69 247.623 644.24 202.959C1140.78 155.596 1670.89 59.3701 1687.88 -182.02" stroke="#FF5D00" stroke-width="5.06" stroke-miterlimit="10"/>
<path d="M-289.52 298.724C-289.52 298.724 163.641 245.916 643.19 202.233C1139.59 155.875 1670.41 61.2744 1688.58 -179.078" stroke="#FF5D00" stroke-width="5.06" stroke-miterlimit="10"/>
<path d="M-289.939 298.198C-289.939 298.198 162.591 244.201 642.141 201.479C1138.39 156.126 1669.93 63.1508 1689.27 -176.184" stroke="#FF5E00" stroke-width="5.06" stroke-miterlimit="10"/>
<path d="M-290.37 297.681C-290.37 297.681 161.53 242.457 641.06 200.734C1137.17 156.381 1669.42 65.0302 1689.94 -173.273" stroke="#FF5E00" stroke-width="5.06" stroke-miterlimit="10"/>
<path d="M-290.8 297.156C-290.8 297.156 160.48 240.73 640.06 199.981C1136.06 156.627 1669.06 66.9082 1690.7 -170.371" stroke="#FF5E00" stroke-width="5.06" stroke-miterlimit="10"/>
<path d="M-291.23 296.637C-291.23 296.637 159.43 238.997 638.979 199.254C1134.82 156.886 1668.5 68.811 1691.37 -167.438" stroke="#FF5F00" stroke-width="5.06" stroke-miterlimit="10"/>
<path d="M-291.65 296.113C-291.65 296.113 158.37 237.247 637.93 198.484C1133.62 157.134 1668.06 70.6655 1692.06 -164.559" stroke="#FF5F00" stroke-width="5.06" stroke-miterlimit="10"/>
<path d="M-292.08 295.592C-292.08 295.592 157.44 236.151 636.92 197.729C1132.6 158.01 1667.58 72.522 1692.81 -161.652" stroke="#FF5F00" stroke-width="5.06" stroke-miterlimit="10"/>
<path d="M-292.51 295.069C-292.51 295.069 156.38 234.426 635.83 196.978C1131.36 158.271 1667.06 74.4204 1693.47 -158.742" stroke="#FF6000" stroke-width="5.06" stroke-miterlimit="10"/>
<path d="M-292.939 294.55C-292.939 294.55 155.331 232.712 634.781 196.231C1130.17 158.536 1666.58 76.2984 1694.16 -155.84" stroke="#FF6000" stroke-width="5.06" stroke-miterlimit="10"/>
<path d="M-293.37 294.026C-293.37 294.026 154.28 230.992 633.72 195.511C1128.97 158.834 1666.1 78.2085 1694.86 -152.918" stroke="#FF6100" stroke-width="5.06" stroke-miterlimit="10"/>
<path d="M-293.79 293.529C-293.79 293.529 153.21 229.294 632.67 194.748C1127.78 159.077 1665.67 80.0767 1695.56 -150" stroke="#FF6100" stroke-width="5.06" stroke-miterlimit="10"/>
<path d="M-294.22 292.98C-294.22 292.98 152.16 227.55 631.62 193.979C1126.62 159.319 1665.15 81.9312 1696.26 -147.121" stroke="#FF6100" stroke-width="5.06" stroke-miterlimit="10"/>
<path d="M-294.65 292.463C-294.65 292.463 151.11 225.863 630.57 193.227C1125.39 159.58 1664.67 83.8296 1696.96 -144.211" stroke="#FF6200" stroke-width="5.06" stroke-miterlimit="10"/>
<path d="M-295.08 291.938C-295.08 291.938 150.06 224.111 629.52 192.475C1124.2 159.839 1664.19 85.6885 1697.66 -141.309" stroke="#FF6200" stroke-width="5.06" stroke-miterlimit="10"/>
<path d="M-295.51 291.419C-295.51 291.419 149 222.385 628.46 191.715C1123 160.097 1663.71 87.5661 1698.35 -138.375" stroke="#FF6300" stroke-width="5.06" stroke-miterlimit="10"/>
<path d="M-295.939 290.897C-295.939 290.897 147.931 220.668 627.401 190.985C1121.81 160.366 1663.23 89.4474 1699.06 -135.488" stroke="#FF6300" stroke-width="5.06" stroke-miterlimit="10"/>
<path d="M-296.36 290.367C-296.36 290.367 146.89 218.911 626.36 190.214C1120.61 160.614 1662.75 91.3136 1699.75 -132.598" stroke="#FF6300" stroke-width="5.06" stroke-miterlimit="10"/>
<path d="M-296.79 289.851C-296.79 289.851 145.83 217.225 625.31 189.477C1119.42 160.882 1662.31 93.2008 1700.45 -129.68" stroke="#FF6400" stroke-width="5.06" stroke-miterlimit="10"/>
<path d="M-297.22 289.334C-297.22 289.334 144.78 215.5 624.26 188.726C1118.26 161.143 1661.8 95.0802 1701.15 -126.77" stroke="#FF6400" stroke-width="5.07" stroke-miterlimit="10"/>
<path d="M-297.64 288.809C-297.64 288.809 143.72 213.78 623.21 187.973C1117.03 161.414 1661.32 96.9581 1701.85 -123.867" stroke="#FF6500" stroke-width="5.07" stroke-miterlimit="10"/>
<path d="M-298.07 288.292C-298.07 288.292 142.66 212.061 622.15 187.228C1115.83 161.656 1660.84 98.8375 1702.54 -120.957" stroke="#FF6500" stroke-width="5.07" stroke-miterlimit="10"/>
<path d="M-298.5 287.767C-298.5 287.767 141.61 210.335 621.06 186.476C1114.59 161.915 1660.32 100.715 1703.2 -118.055" stroke="#FF6500" stroke-width="5.07" stroke-miterlimit="10"/>
<path d="M-298.939 287.246C-298.939 287.246 140.551 208.612 620.061 185.721C1113.45 162.172 1659.89 102.591 1703.95 -115.148" stroke="#FF6600" stroke-width="5.07" stroke-miterlimit="10"/>
<path d="M-299.36 286.72C-299.36 286.72 139.49 206.891 619 184.973C1112.24 162.43 1659.4 104.468 1704.64 -112.234" stroke="#FF6600" stroke-width="5.07" stroke-miterlimit="10"/>
<path d="M-299.78 286.207C-299.78 286.207 138.44 205.171 617.95 184.227C1111.06 162.689 1658.92 106.352 1705.34 -109.332" stroke="#FF6700" stroke-width="5.07" stroke-miterlimit="10"/>
<path d="M-300.21 285.682C-300.21 285.682 137.38 203.444 616.89 183.499C1109.89 162.973 1658.45 108.249 1706.04 -106.398" stroke="#FF6700" stroke-width="5.07" stroke-miterlimit="10"/>
<path d="M-300.64 285.16C-300.64 285.16 136.36 201.688 615.84 182.718C1108.65 163.197 1657.97 110.092 1706.73 -103.531" stroke="#FF6700" stroke-width="5.07" stroke-miterlimit="10"/>
<path d="M-301.07 284.637C-301.07 284.637 135.26 199.997 614.79 181.974C1107.46 163.459 1657.49 111.979 1707.43 -100.613" stroke="#FF6800" stroke-width="5.07" stroke-miterlimit="10"/>
<path d="M-301.49 284.116C-301.49 284.116 134.21 198.268 613.74 181.219C1106.26 163.716 1657.06 113.854 1708.13 -97.707" stroke="#FF6800" stroke-width="5.07" stroke-miterlimit="10"/>
<path d="M-301.939 283.595C-301.939 283.595 133.151 196.545 612.691 180.477C1105.06 163.972 1656.53 115.736 1708.83 -94.8008" stroke="#FF6900" stroke-width="5.07" stroke-miterlimit="10"/>
<path d="M-302.35 283.074C-302.35 283.074 132.06 194.816 611.64 179.703C1103.87 164.229 1656.06 117.612 1709.53 -91.8945" stroke="#FF6900" stroke-width="5.07" stroke-miterlimit="10"/>
<path d="M-302.78 282.547C-302.78 282.547 131.06 193.087 610.58 178.967C1102.67 164.479 1655.58 119.487 1710.23 -88.9883" stroke="#FF6900" stroke-width="5.07" stroke-miterlimit="10"/>
<path d="M-303.21 282.027C-303.21 282.027 129.98 191.36 609.53 178.22C1101.47 164.732 1655.09 121.364 1710.93 -86.1055" stroke="#FF6A00" stroke-width="5.07" stroke-miterlimit="10"/>
<path d="M-303.63 281.515C-303.63 281.515 128.92 189.639 608.48 177.473C1100.28 164.99 1654.62 123.248 1711.62 -83.1719" stroke="#FF6A00" stroke-width="5.07" stroke-miterlimit="10"/>
<path d="M-304.061 280.99C-304.061 280.99 127.859 187.926 607.429 176.72C1099.08 165.249 1654.14 125.126 1712.32 -80.2695" stroke="#FF6B00" stroke-width="5.07" stroke-miterlimit="10"/>
<path d="M-304.49 280.462C-304.49 280.462 126.81 186.184 606.38 175.972C1097.88 165.5 1653.66 127.002 1713.06 -77.3633" stroke="#FF6B00" stroke-width="5.07" stroke-miterlimit="10"/>
<path d="M-304.939 279.945C-304.939 279.945 125.731 184.459 605.301 175.22C1096.67 165.735 1653.16 128.881 1713.7 -74.4531" stroke="#FF6B00" stroke-width="5.07" stroke-miterlimit="10"/>
<path d="M-305.35 279.419C-305.35 279.419 124.65 182.732 604.27 174.448C1095.49 165.987 1652.7 130.739 1714.42 -71.5391" stroke="#FF6C00" stroke-width="5.07" stroke-miterlimit="10"/>
<path d="M-305.77 278.899C-305.77 278.899 123.63 181.004 603.23 173.719C1094.3 166.257 1652.23 132.616 1715.13 -68.6445" stroke="#FF6C00" stroke-width="5.07" stroke-miterlimit="10"/>
<path d="M-306.2 278.352C-306.2 278.352 122.57 179.275 602.17 172.97C1093.06 166.514 1651.74 134.516 1715.81 -65.7383" stroke="#FF6D00" stroke-width="5.07" stroke-miterlimit="10"/>
<path d="M-306.63 277.857C-306.63 277.857 121.52 177.546 601.12 172.215C1091.9 166.764 1651.27 136.392 1716.51 -62.832" stroke="#FF6D00" stroke-width="5.07" stroke-miterlimit="10"/>
<path d="M-307.061 277.332C-307.061 277.332 120.459 175.82 600.059 171.482C1090.69 167.055 1650.78 138.283 1717.2 -59.9102" stroke="#FF6D00" stroke-width="5.07" stroke-miterlimit="10"/>
<path d="M-307.48 276.814C-307.48 276.814 119.4 174.088 599.06 170.717C1089.56 167.271 1650.36 140.149 1717.96 -57.0195" stroke="#FF6E00" stroke-width="5.07" stroke-miterlimit="10"/>
<path d="M-307.939 276.291C-307.939 276.291 118.341 172.363 597.961 169.966C1088.31 167.519 1649.83 142.029 1718.61 -54.1094" stroke="#FF6E00" stroke-width="5.07" stroke-miterlimit="10"/>
<path d="M-308.34 275.773C-308.34 275.773 117.29 170.632 596.91 169.221C1087.11 167.773 1649.35 143.927 1719.31 -51.1992" stroke="#FF6F00" stroke-width="5.07" stroke-miterlimit="10"/>
<path d="M-308.77 275.245C-308.77 275.245 116.23 168.901 595.86 168.465C1085.91 168.022 1648.86 145.782 1720 -48.3008" stroke="#FF6F00" stroke-width="5.07" stroke-miterlimit="10"/>
<path d="M-309.2 274.729C-309.2 274.729 115.17 167.172 594.81 167.69C1084.72 168.247 1648.39 147.638 1720.7 -45.4141" stroke="#FF6F00" stroke-width="5.07" stroke-miterlimit="10"/>
<path d="M-309.62 274.202C-309.62 274.202 114.11 165.437 593.75 166.967C1083.52 168.523 1647.91 149.54 1721.4 -42.4883" stroke="#FF7000" stroke-width="5.07" stroke-miterlimit="10"/>
<path d="M-310.05 273.685C-310.05 273.685 113.06 163.712 592.7 166.216C1082.32 168.777 1647.44 151.419 1722.1 -39.5781" stroke="#FF7000" stroke-width="5.07" stroke-miterlimit="10"/>
<path d="M-310.48 273.162C-310.48 273.162 112 162 591.65 165.465C1081.13 169.025 1646.96 153.298 1722.8 -36.668" stroke="#FF7100" stroke-width="5.07" stroke-miterlimit="10"/>
<path d="M-310.939 272.662C-310.939 272.662 110.941 160.248 590.601 164.719C1079.93 169.271 1646.48 155.176 1723.5 -33.7656" stroke="#FF7100" stroke-width="5.07" stroke-miterlimit="10"/>
<path d="M-311.33 272.112C-311.33 272.112 109.88 158.51 589.55 163.979C1078.73 169.519 1646 157.049 1724.19 -30.875" stroke="#FF7100" stroke-width="5.08" stroke-miterlimit="10"/>
<path d="M-311.76 271.592C-311.76 271.592 108.82 156.781 588.5 163.212C1077.5 169.77 1645.5 158.931 1724.89 -27.9492" stroke="#FF7200" stroke-width="5.08" stroke-miterlimit="10"/>
<path d="M-312.189 271.073C-312.189 271.073 107.771 155.042 587.441 162.466C1076.34 170.016 1645.04 160.809 1725.59 -25.0469" stroke="#FF7200" stroke-width="5.08" stroke-miterlimit="10"/>
<path d="M-312.62 270.55C-312.62 270.55 106.71 153.317 586.38 161.715C1075.13 170.27 1644.55 162.682 1726.28 -22.1367" stroke="#FF7300" stroke-width="5.08" stroke-miterlimit="10"/>
<path d="M-313.05 270.029C-313.05 270.029 105.65 151.582 585.34 160.96C1073.94 170.515 1644.09 164.558 1726.99 -19.2617" stroke="#FF7300" stroke-width="5.08" stroke-miterlimit="10"/>
<path d="M-313.47 269.497C-313.47 269.497 104.59 149.849 584.29 160.213C1072.75 170.761 1643.61 166.423 1727.69 -16.3281" stroke="#FF7300" stroke-width="5.08" stroke-miterlimit="10"/>
<path d="M-313.939 268.984C-313.939 268.984 103.541 148.115 583.241 159.466C1071.55 171.013 1643.13 168.319 1728.39 -13.4141" stroke="#FF7400" stroke-width="5.08" stroke-miterlimit="10"/>
<path d="M-314.33 268.461C-314.33 268.461 102.48 146.385 582.18 158.709C1070.35 171.255 1642.65 170.218 1729.06 -10.5156" stroke="#FF7400" stroke-width="5.08" stroke-miterlimit="10"/>
<path d="M-314.76 267.944C-314.76 267.944 101.42 144.634 581.13 157.965C1069.13 171.503 1642.13 172.072 1729.78 -7.60547" stroke="#FF7500" stroke-width="5.08" stroke-miterlimit="10"/>
<path d="M-315.189 267.415C-315.189 267.415 100.371 142.91 580.061 157.208C1067.94 171.752 1641.67 173.946 1730.46 -4.67578" stroke="#FF7500" stroke-width="5.08" stroke-miterlimit="10"/>
<path d="M-315.61 266.897C-315.61 266.897 99.3096 141.178 579.06 156.456C1066.76 171.993 1641.21 175.825 1731.18 -1.78516" stroke="#FF7500" stroke-width="5.08" stroke-miterlimit="10"/>
<path d="M-316.04 266.374C-316.04 266.374 98.25 139.448 577.96 155.712C1065.55 172.242 1640.71 177.705 1731.86 1.11328" stroke="#FF7600" stroke-width="5.08" stroke-miterlimit="10"/>
<path d="M-316.47 265.856C-316.47 265.856 97.1903 137.709 576.93 154.959C1064.37 172.488 1640.26 179.583 1732.58 4.01562" stroke="#FF7600" stroke-width="5.08" stroke-miterlimit="10"/>
<path d="M-316.939 265.328C-316.939 265.328 96.0606 135.973 575.831 154.204C1063.14 172.726 1639.74 181.459 1733.23 6.92188" stroke="#FF7700" stroke-width="5.08" stroke-miterlimit="10"/>
<path d="M-317.32 264.811C-317.32 264.811 95.0597 134.236 574.82 153.459C1061.98 172.974 1639.3 183.338 1733.97 9.83203" stroke="#FF7700" stroke-width="5.08" stroke-miterlimit="10"/>
<path d="M-317.75 264.286C-317.75 264.286 94.06 132.503 573.77 152.707C1060.77 173.22 1638.82 185.216 1734.67 12.7344" stroke="#FF7700" stroke-width="5.08" stroke-miterlimit="10"/>
<path d="M-318.18 263.769C-318.18 263.769 92.9703 130.765 572.72 151.955C1059.59 173.455 1638.34 187.095 1735.37 15.6445" stroke="#FF7800" stroke-width="5.08" stroke-miterlimit="10"/>
<path d="M-318.61 263.244C-318.61 263.244 91.9096 129.026 571.67 151.209C1058.39 173.708 1637.86 188.973 1736.06 18.5469" stroke="#FF7800" stroke-width="5.08" stroke-miterlimit="10"/>
<path d="M-319.04 262.722C-319.04 262.722 90.8499 127.291 570.61 150.454C1057.2 173.946 1637.38 190.849 1736.77 21.4531" stroke="#FF7900" stroke-width="5.08" stroke-miterlimit="10"/>
<path d="M-319.46 262.199C-319.46 262.199 89.8 125.553 569.54 149.703C1055.98 174.194 1636.89 192.703 1737.44 24.3633" stroke="#FF7900" stroke-width="5.08" stroke-miterlimit="10"/>
<path d="M-319.89 261.68C-319.89 261.68 88.7404 123.827 568.51 148.956C1054.81 174.434 1636.43 194.606 1738.16 27.2656" stroke="#FF7900" stroke-width="5.08" stroke-miterlimit="10"/>
<path d="M-320.32 261.157C-320.32 261.157 87.6797 122.076 567.46 148.205C1053.61 174.682 1635.95 196.486 1738.86 30.1758" stroke="#FF7A00" stroke-width="5.08" stroke-miterlimit="10"/>
<path d="M-320.75 260.646C-320.75 260.646 86.63 120.339 566.41 147.454C1052.41 174.924 1635.47 198.365 1739.56 33.0859" stroke="#FF7A00" stroke-width="5.08" stroke-miterlimit="10"/>
<path d="M-321.18 260.111C-321.18 260.111 85.5703 118.595 565.36 146.704C1051.22 175.16 1634.99 200.239 1740.26 35.9844" stroke="#FF7B00" stroke-width="5.08" stroke-miterlimit="10"/>
<path d="M-321.6 259.597C-321.6 259.597 84.5204 116.862 564.3 145.956C1050.06 175.412 1634.51 202.122 1740.96 38.8984" stroke="#FF7B00" stroke-width="5.08" stroke-miterlimit="10"/>
<path d="M-322.03 259.068C-322.03 259.068 83.4597 115.119 563.25 145.2C1048.83 175.648 1634.03 204.009 1741.65 41.7969" stroke="#FF7B00" stroke-width="5.08" stroke-miterlimit="10"/>
<path d="M-322.46 258.551C-322.46 258.551 82.4101 113.381 562.2 144.455C1047.64 175.908 1633.55 205.876 1742.35 44.707" stroke="#FF7C00" stroke-width="5.08" stroke-miterlimit="10"/>
<path d="M-322.89 258.028C-322.89 258.028 81.3503 111.643 561.11 143.704C1046.44 176.131 1633.06 207.755 1743.06 47.6172" stroke="#FF7C00" stroke-width="5.08" stroke-miterlimit="10"/>
<path d="M-323.311 257.484C-323.311 257.484 80.2994 109.904 560.059 142.951C1045.21 176.371 1632.56 209.633 1743.71 50.5195" stroke="#FF7D00" stroke-width="5.08" stroke-miterlimit="10"/>
<path d="M-323.74 256.985C-323.74 256.985 79.2397 108.167 559.06 142.206C1044.06 176.613 1632.14 211.513 1744.47 53.4297" stroke="#FF7D00" stroke-width="5.08" stroke-miterlimit="10"/>
<path d="M-324.17 256.463C-324.17 256.463 78.3 105.823 557.99 141.45C1042.99 176.229 1631.64 213.387 1745.15 56.3281" stroke="#FF7D00" stroke-width="5.08" stroke-miterlimit="10"/>
<path d="M-324.6 255.939C-324.6 255.939 77.2504 104.091 556.94 140.698C1041.78 176.496 1631.16 215.266 1745.85 59.2383" stroke="#FF7E00" stroke-width="5.08" stroke-miterlimit="10"/>
<path d="M-325.03 255.42C-325.03 255.42 76.1898 102.39 555.89 139.952C1040.58 176.749 1630.68 217.144 1746.54 62.1719" stroke="#FF7E00" stroke-width="5.08" stroke-miterlimit="10"/>
<path d="M-325.45 254.897C-325.45 254.897 75.1398 100.658 554.84 139.232C1039.39 177.028 1630.2 219.048 1747.24 65.082" stroke="#FF7E00" stroke-width="5.09" stroke-miterlimit="10"/>
<path d="M-325.88 254.38C-325.88 254.38 74.0601 98.9085 553.79 138.45C1038.2 177.251 1629.73 220.896 1747.94 67.9609" stroke="#FF7F00" stroke-width="5.09" stroke-miterlimit="10"/>
<path d="M-326.311 253.852C-326.311 253.852 73.0594 97.1732 552.729 137.701C1037 177.502 1629.25 222.772 1748.64 70.8672" stroke="#FF7F00" stroke-width="5.09" stroke-miterlimit="10"/>
<path d="M-326.74 253.334C-326.74 253.334 71.9797 95.4404 551.68 136.948C1035.81 177.754 1628.77 224.65 1749.34 73.7695" stroke="#FF8000" stroke-width="5.09" stroke-miterlimit="10"/>
<path d="M-327.16 252.81C-327.16 252.81 70.9199 93.7027 550.63 136.197C1034.63 178.002 1628.29 226.529 1750.04 76.6797" stroke="#FF8000" stroke-width="5.09" stroke-miterlimit="10"/>
<path d="M-327.59 252.292C-327.59 252.292 69.8702 91.9835 549.58 135.439C1033.43 178.243 1627.81 228.396 1750.73 79.5703" stroke="#FF8000" stroke-width="5.09" stroke-miterlimit="10"/>
<path d="M-328.02 251.789C-328.02 251.789 68.8205 90.2536 548.53 134.696C1032.23 178.505 1627.33 230.283 1751.43 82.4883" stroke="#FF8100" stroke-width="5.09" stroke-miterlimit="10"/>
<path d="M-328.45 251.247C-328.45 251.247 67.7598 88.5223 547.47 133.944C1031.06 178.76 1626.85 232.187 1752.13 85.3984" stroke="#FF8100" stroke-width="5.09" stroke-miterlimit="10"/>
<path d="M-328.88 250.722C-328.88 250.722 66.7101 86.7958 546.42 133.198C1029.85 179.006 1626.37 234.04 1752.83 88.3008" stroke="#FF8200" stroke-width="5.09" stroke-miterlimit="10"/>
<path d="M-329.3 250.204C-329.3 250.204 65.7002 85.0644 545.37 132.447C1028.65 179.241 1625.9 235.919 1753.53 91.2109" stroke="#FF8200" stroke-width="5.09" stroke-miterlimit="10"/>
<path d="M-329.73 249.679C-329.73 249.679 64.5995 83.3695 544.32 131.694C1027.46 179.513 1625.42 237.797 1754.23 94.1133" stroke="#FF8200" stroke-width="5.09" stroke-miterlimit="10"/>
<path d="M-330.16 249.158C-330.16 249.158 63.5499 81.5837 543.27 130.945C1026.27 179.763 1624.94 239.673 1754.92 97.0195" stroke="#FF8300" stroke-width="5.09" stroke-miterlimit="10"/>
<path d="M-330.59 248.628C-330.59 248.628 62.4901 79.8714 542.22 130.188C1025.06 180.018 1624.46 241.552 1755.62 99.9297" stroke="#FF8300" stroke-width="5.09" stroke-miterlimit="10"/>
<path d="M-331.02 248.116C-331.02 248.116 61.4405 78.1448 541.16 129.442C1023.88 180.264 1623.98 243.43 1756.32 102.832" stroke="#FF8400" stroke-width="5.09" stroke-miterlimit="10"/>
<path d="M-331.439 247.59C-331.439 247.59 60.3905 76.4177 540.111 128.707C1022.69 180.516 1623.5 245.308 1757.06 105.715" stroke="#FF8400" stroke-width="5.09" stroke-miterlimit="10"/>
<path d="M-331.87 247.071C-331.87 247.071 59.3299 74.6846 539.06 127.942C1021.5 180.769 1623.06 247.185 1757.72 108.648" stroke="#FF8400" stroke-width="5.09" stroke-miterlimit="10"/>
<path d="M-332.3 246.548C-332.3 246.548 58.2802 72.9601 538.06 127.216C1020.35 181.049 1622.6 249.09 1758.47 111.578" stroke="#FF8500" stroke-width="5.09" stroke-miterlimit="10"/>
<path d="M-332.73 246.029C-332.73 246.029 57.2695 71.2267 536.96 126.444C1019.11 181.269 1622.07 250.943 1759.11 114.461" stroke="#FF8500" stroke-width="5.09" stroke-miterlimit="10"/>
<path d="M-333.15 245.504C-333.15 245.504 56.1696 69.5001 535.9 125.691C1017.9 181.522 1621.59 252.795 1759.81 117.363" stroke="#FF8600" stroke-width="5.09" stroke-miterlimit="10"/>
<path d="M-333.58 244.987C-333.58 244.987 55.1199 67.775 534.85 124.94C1016.73 181.776 1621.11 254.7 1760.51 120.273" stroke="#FF8600" stroke-width="5.09" stroke-miterlimit="10"/>
<path d="M-334.01 244.463C-334.01 244.463 54.0602 66.0434 533.8 124.195C1015.53 182.03 1620.63 256.579 1761.21 123.183" stroke="#FF8600" stroke-width="5.09" stroke-miterlimit="10"/>
<path d="M-334.439 243.943C-334.439 243.943 53.0605 64.3096 532.751 123.422C1014.34 182.232 1620.15 258.437 1761.91 126.066" stroke="#FF8700" stroke-width="5.09" stroke-miterlimit="10"/>
<path d="M-334.87 243.419C-334.87 243.419 51.9599 62.5646 531.7 122.689C1013.15 182.529 1619.7 260.334 1762.61 129.013" stroke="#FF8700" stroke-width="5.09" stroke-miterlimit="10"/>
<path d="M-335.29 242.9C-335.29 242.9 50.91 60.8503 530.65 121.942C1011.96 182.781 1619.19 262.212 1763.31 131.902" stroke="#FF8800" stroke-width="5.09" stroke-miterlimit="10"/>
<path d="M-335.72 242.376C-335.72 242.376 49.8503 59.1254 529.59 121.191C1010.76 183.036 1618.72 264.104 1764 134.806" stroke="#FF8800" stroke-width="5.09" stroke-miterlimit="10"/>
<path d="M-336.15 241.854C-336.15 241.854 48.8496 57.3894 528.54 120.442C1009.54 183.285 1618.24 265.972 1764.7 137.718" stroke="#FF8800" stroke-width="5.09" stroke-miterlimit="10"/>
<path d="M-336.58 241.33C-336.58 241.33 47.7399 55.6633 527.49 119.689C1008.38 183.557 1617.76 267.844 1765.4 140.614" stroke="#FF8900" stroke-width="5.09" stroke-miterlimit="10"/>
<path d="M-337 240.814C-337 240.814 46.69 53.934 526.44 118.94C1007.18 183.788 1617.28 269.726 1766.06 143.526" stroke="#FF8900" stroke-width="5.09" stroke-miterlimit="10"/>
<path d="M-337.43 240.289C-337.43 240.289 45.6403 52.2067 525.39 118.187C1005.99 184.04 1616.8 271.603 1766.8 146.434" stroke="#FF8A00" stroke-width="5.09" stroke-miterlimit="10"/>
<path d="M-337.86 239.774C-337.86 239.774 44.5797 50.4717 524.33 117.438C1004.8 184.291 1616.33 273.479 1767.5 149.334" stroke="#FF8A00" stroke-width="5.09" stroke-miterlimit="10"/>
<path d="M-338.29 239.245C-338.29 239.245 43.5299 48.7474 523.28 116.688C1003.61 184.54 1615.84 275.352 1768.19 152.245" stroke="#FF8A00" stroke-width="5.09" stroke-miterlimit="10"/>
<path d="M-338.72 238.723C-338.72 238.723 42.4803 47.0114 522.28 115.932C1002.46 184.789 1615.42 277.227 1768.94 155.138" stroke="#FF8B00" stroke-width="5.09" stroke-miterlimit="10"/>
<path d="M-339.14 238.202C-339.14 238.202 41.4203 45.2892 521.18 115.203C1001.18 185.059 1614.89 279.122 1769.59 158.07" stroke="#FF8B00" stroke-width="5.09" stroke-miterlimit="10"/>
<path d="M-339.57 237.681C-339.57 237.681 40.3697 43.5473 520.13 114.435C999.89 185.322 1614.41 280.985 1770.29 160.963" stroke="#FF8C00" stroke-width="5.09" stroke-miterlimit="10"/>
<path d="M-340 237.158C-340 237.158 39.32 41.8481 519.06 113.684C998.8 185.52 1613.93 282.865 1770.99 163.893" stroke="#FF8C00" stroke-width="5.1" stroke-miterlimit="10"/>
</svg>
